<svg width="24" height="24" viewBox="0 0 24 24" fill="none" xmlns="http://www.w3.org/2000/svg">
<path d="M11.9984 13.5999C12.8821 13.5999 13.5984 12.8836 13.5984 11.9999C13.5984 11.1162 12.8821 10.3999 11.9984 10.3999C11.1148 10.3999 10.3984 11.1162 10.3984 11.9999C10.3984 12.8836 11.1148 13.5999 11.9984 13.5999Z" fill="#585858"/>
<path d="M5.6 13.5999C6.48366 13.5999 7.2 12.8836 7.2 11.9999C7.2 11.1162 6.48366 10.3999 5.6 10.3999C4.71634 10.3999 4 11.1162 4 11.9999C4 12.8836 4.71634 13.5999 5.6 13.5999Z" fill="#585858"/>
<path d="M18.4008 13.5999C19.2844 13.5999 20.0008 12.8836 20.0008 11.9999C20.0008 11.1162 19.2844 10.3999 18.4008 10.3999C17.5171 10.3999 16.8008 11.1162 16.8008 11.9999C16.8008 12.8836 17.5171 13.5999 18.4008 13.5999Z" fill="#585858"/>
</svg>
