<svg width="22" height="22" viewBox="0 0 22 22" fill="none" xmlns="http://www.w3.org/2000/svg">
<path d="M21.7071 20.2469L17.6144 16.225C21.0537 12.3406 20.8129 6.4625 17.0985 2.8875C13.1778 -0.9625 6.88398 -0.9625 2.92885 2.8875C-0.888712 6.6 -0.991889 12.7187 2.7225 16.5344L2.92885 16.7406C6.50566 20.1781 12.0772 20.5562 16.0668 17.6L20.1939 21.6562C20.3658 21.8625 20.641 21.9656 20.9161 22C21.1912 22 21.4664 21.8969 21.6727 21.6906C22.0854 21.3125 22.1198 20.6594 21.7071 20.2469ZM2.10343 9.79688C2.17222 5.5 5.71464 2.0625 10.0481 2.09687C14.3471 2.0625 17.8552 5.5 17.9584 9.79688C17.8896 14.0938 14.3471 17.5312 10.0481 17.4969C5.71464 17.5656 2.17222 14.1281 2.10343 9.79688Z" fill="#A3A8AF"/>
</svg>
