<svg width="32" height="32" viewBox="0 0 32 32" fill="none" xmlns="http://www.w3.org/2000/svg">
<rect x="0.5" y="0.5" width="31" height="31" rx="7.5" fill="white"/>
<path d="M16.0005 18.1334C17.1787 18.1334 18.1339 17.1782 18.1339 16C18.1339 14.8218 17.1787 13.8667 16.0005 13.8667C14.8223 13.8667 13.8672 14.8218 13.8672 16C13.8672 17.1782 14.8223 18.1334 16.0005 18.1334Z" fill="#282828"/>
<path d="M7.46536 18.1334C8.64357 18.1334 9.5987 17.1782 9.5987 16C9.5987 14.8218 8.64357 13.8667 7.46536 13.8667C6.28716 13.8667 5.33203 14.8218 5.33203 16C5.33203 17.1782 6.28716 18.1334 7.46536 18.1334Z" fill="#282828"/>
<path d="M24.5318 18.1334C25.71 18.1334 26.6651 17.1782 26.6651 16C26.6651 14.8218 25.71 13.8667 24.5318 13.8667C23.3536 13.8667 22.3984 14.8218 22.3984 16C22.3984 17.1782 23.3536 18.1334 24.5318 18.1334Z" fill="#282828"/>
<rect x="0.5" y="0.5" width="31" height="31" rx="7.5" stroke="#CACACA"/>
</svg>
