<svg width="22" height="16" viewBox="0 0 22 16" fill="none" xmlns="http://www.w3.org/2000/svg">
<path d="M3.8846 3.81538H18.9344V3.69231C18.9344 3.36589 18.7939 3.05284 18.5436 2.82202C18.2934 2.59121 17.954 2.46154 17.6001 2.46154H8.81226C8.4584 2.46147 8.11907 2.33175 7.86889 2.10092L5.98216 0.360615C5.73198 0.129785 5.39265 6.97076e-05 5.03879 0L1.58823 0C1.23435 0 0.894955 0.12967 0.644721 0.360484C0.394486 0.591298 0.253906 0.904349 0.253906 1.23077L0.253906 11.4129L1.57622 5.86462C1.86844 4.63877 2.79579 3.81538 3.8846 3.81538Z" fill="#1080EC"/>
<path d="M20.0017 4.8318C19.9205 4.8106 19.8366 4.79983 19.7522 4.7998H3.88441C3.30931 4.7998 2.7996 5.31427 2.61813 6.07611L0.883513 13.3524L0.83948 13.5383C0.815447 13.6447 0.798072 13.7524 0.787441 13.8607C0.76877 14.0375 0.76877 14.2156 0.787441 14.3924C0.875507 15.2737 1.41457 15.9998 2.10842 15.9998H17.9722C18.5473 15.9998 19.057 15.4853 19.2385 14.7235L19.4893 13.6712L20.0017 11.5198L21.0171 7.26134C21.2787 6.16227 20.7756 5.03488 20.0017 4.8318Z" fill="#1080EC"/>
</svg>
