<svg width="12" height="12" viewBox="0 0 12 12" fill="none" xmlns="http://www.w3.org/2000/svg">
<path d="M1.97368 0.666504V11.3332H0V0.666504H1.97368Z" fill="#A3A8AF"/>
<path d="M7.22727 11.3332H4.97368L4.98804 9.75075H7.22727C7.83493 9.75075 8.3445 9.614 8.75598 9.3405C9.16746 9.06211 9.47847 8.66406 9.68899 8.14636C9.89952 7.62377 10.0048 6.99862 10.0048 6.2709V5.72145C10.0048 5.15979 9.94498 4.66406 9.82536 4.23427C9.70574 3.80448 9.52871 3.44306 9.29426 3.15002C9.06459 2.85698 8.7799 2.63476 8.44019 2.48335C8.10048 2.33195 7.71053 2.25625 7.27033 2.25625H4.93062V0.666504H7.27033C7.9689 0.666504 8.60526 0.786162 9.17943 1.02548C9.75837 1.26479 10.2584 1.60912 10.6794 2.05845C11.1053 2.50289 11.4306 3.03525 11.6555 3.65551C11.8852 4.27578 12 4.96931 12 5.7361V6.2709C12 7.0328 11.8852 7.72633 11.6555 8.35149C11.4306 8.97175 11.1053 9.50411 10.6794 9.94855C10.2584 10.393 9.75598 10.7349 9.17225 10.9742C8.58852 11.2135 7.94019 11.3332 7.22727 11.3332ZM6.07895 0.666504V11.3332H4.10526V0.666504H6.07895Z" fill="#A3A8AF"/>
</svg>
